HIERARCHY
	ROOT Hips
	{
		OFFSET 0 0 0 
		CHANNELS 6 Xposition Yposition Zposition Zrotation Xrotation Yrotation
		JOINT LHipJoint
		{
			OFFSET 0 0 0 
			CHANNELS 3 Zrotation Xrotation Yrotation
			JOINT LeftUpLeg
			{
				OFFSET 0.0783705 -0.0912565 0.0336595 
				CHANNELS 3 Zrotation Xrotation Yrotation
				JOINT LeftLeg
				{
					OFFSET 0.117854 -0.323802 0 
					CHANNELS 3 Zrotation Xrotation Yrotation
					JOINT LeftFoot
					{
						OFFSET 0.135318 -0.371784 0 
						CHANNELS 3 Zrotation Xrotation Yrotation
						JOINT LeftToeBase
						{
							OFFSET 0.0102135 -0.028061 0.104268 
							CHANNELS 3 Zrotation Xrotation Yrotation
							End Site
							{
								OFFSET 0 -0 0.0542675
							}
						}
					}
				}
			}
		}
		JOINT RHipJoint
		{
			OFFSET 0 0 0 
			CHANNELS 3 Zrotation Xrotation Yrotation
			JOINT RightUpLeg
			{
				OFFSET -0.075711 -0.0912565 0.0336595 
				CHANNELS 3 Zrotation Xrotation Yrotation
				JOINT RightLeg
				{
					OFFSET -0.124412 -0.341819 0 
					CHANNELS 3 Zrotation Xrotation Yrotation
					JOINT RightFoot
					{
						OFFSET -0.135017 -0.370955 0 
						CHANNELS 3 Zrotation Xrotation Yrotation
						JOINT RightToeBase
						{
							OFFSET -0.009875 -0.0271315 0.111076 
							CHANNELS 3 Zrotation Xrotation Yrotation
							End Site
							{
								OFFSET -0 -0 0.0574575
							}
						}
					}
				}
			}
		}
		JOINT LowerBack
		{
			OFFSET 0 0 0 
			CHANNELS 3 Zrotation Xrotation Yrotation
			JOINT Spine
			{
				OFFSET -0.0007835 0.106437 -0.007921 
				CHANNELS 3 Zrotation Xrotation Yrotation
				JOINT Spine1
				{
					OFFSET 0.003049 0.106663 -0.0005215 
					CHANNELS 3 Zrotation Xrotation Yrotation
					JOINT Neck
					{
						OFFSET 0 0 0 
						CHANNELS 3 Zrotation Xrotation Yrotation
						JOINT Neck1
						{
							OFFSET -0.00252 0.089216 0.0066935 
							CHANNELS 3 Zrotation Xrotation Yrotation
							JOINT Head
							{
								OFFSET -9e-005 0.08844 -0.0166515 
								CHANNELS 3 Zrotation Xrotation Yrotation
								End Site
								{
									OFFSET 0.000367 0.0906245 -0.0063595
								}
							}
						}
					}
					JOINT LeftShoulder
					{
						OFFSET 0 0 0 
						CHANNELS 3 Zrotation Xrotation Yrotation
						JOINT LeftArm
						{
							OFFSET 0.1861 0.047094 -0.0271585 
							CHANNELS 3 Zrotation Xrotation Yrotation
							JOINT LeftForeArm
							{
								OFFSET 0.257301 -0 0 
								CHANNELS 3 Zrotation Xrotation Yrotation
								JOINT LeftHand
								{
									OFFSET 0.182226 -0 -0 
									CHANNELS 3 Zrotation Xrotation Yrotation
									JOINT LeftFingerBase
									{
										OFFSET 0 0 0 
										CHANNELS 3 Zrotation Xrotation Yrotation
										JOINT LFingers
										{
											OFFSET 0.028114 -0 0 
											CHANNELS 3 Zrotation Xrotation Yrotation
											End Site
											{
												OFFSET 0.022666 -0 0
											}
										}
									}
									JOINT LThumb
									{
										OFFSET 0 0 0 
										CHANNELS 3 Zrotation Xrotation Yrotation
										End Site
										{
											OFFSET 0.0230125 -0 0.0230125
										}
									}
								}
							}
						}
					}
					JOINT RightShoulder
					{
						OFFSET 0 0 0 
						CHANNELS 3 Zrotation Xrotation Yrotation
						JOINT RightArm
						{
							OFFSET -0.165127 0.0613395 -0.0234705 
							CHANNELS 3 Zrotation Xrotation Yrotation
							JOINT RightForeArm
							{
								OFFSET -0.266957 -0 0 
								CHANNELS 3 Zrotation Xrotation Yrotation
								JOINT RightHand
								{
									OFFSET -0.178239 -0 -0 
									CHANNELS 3 Zrotation Xrotation Yrotation
									JOINT RightFingerBase
									{
										OFFSET 0 0 0 
										CHANNELS 3 Zrotation Xrotation Yrotation
										JOINT RFingers
										{
											OFFSET -0.0428735 -0 0 
											CHANNELS 3 Zrotation Xrotation Yrotation
											End Site
											{
												OFFSET -0.034566 -0 0
											}
										}
									}
									JOINT RThumb
									{
										OFFSET 0 0 0 
										CHANNELS 3 Zrotation Xrotation Yrotation
										End Site
										{
											OFFSET -0.0350935 -0 0.0350935
										}
									}
								}
							}
						}
					}
				}
			}
		}
	}
MOTION
Frames:	14
Frame Time:	0.0166667
-0.070435 0.72376 -0.427925 4.07426 -0.498869 -58.4221 -0 0 -0 -28.3692 -59.6913 -26.817 -16.1901 54.603 30.8114 0.685277 5.9682 -8.49347 -1.08757 -18.0846 -6.8261 -0 0 -0 16.2847 -29.4017 19.8601 76.2084 69.877 -96.6086 6.13713 -3.1155 36.2762 0.75734 15.1951 -5.67326 2.91191 33.8669 -0.644925 3.35933 7.3254 0.0444629 2.1801 -9.16821 -0.262959 -0.677426 -13.9569 14.4621 -16.9993 4.74046 21.1467 -2.9058 5.06158 9.3791 -0 0 -0 -57.671 -17.7121 -24.9917 19.1355 -6.00964 -34.595 -0 10.3526 -0 23.2113 15.0641 31.2183 -7.125 0 0 0.79979 0.280142 64.3054 -0 0 -0 75.9814 -4.46733 -1.70298 -22.3507 -8.49304 41.1973 -0 16.0079 -0 -34.3187 6.17028 -8.94796 7.125 0 -0 -7.93144 -0.596504 -40.7267 
-0.07445 0.719845 -0.41696 4.26296 -1.05721 -58.7523 -0 0 -0 -30.2962 -60.1472 -27.8926 -18.5149 56.6852 33.6268 0.395921 4.17102 -8.51121 -1.28405 -19.5711 -7.43475 -0 0 -0 14.584 -28.7205 19.7949 77.2138 69.8335 -97.6794 5.25789 -1.02282 37.4096 1.08476 18.0626 -6.81714 2.44528 34.2021 -0.515684 3.16539 7.3404 0.031357 2.19246 -9.2816 -0.264361 -0.774486 -13.874 14.5139 -16.8646 4.38802 21.1541 -2.89458 4.9219 9.42407 -0 0 -0 -57.3538 -18.0905 -24.9327 18.9864 -5.90793 -34.2991 -0 9.6203 -0 22.4694 14.8115 31.7204 -7.125 0 0 0.121987 0.0435298 64.6579 -0 0 -0 75.8471 -5.38737 -1.76048 -22.3174 -8.46426 41.1265 -0 15.8183 -0 -34.6762 6.90791 -9.8624 7.125 0 -0 -8.39563 -0.462755 -41.868 
-0.0777 0.715115 -0.40776 4.00042 -0.527881 -59.0552 -0 0 -0 -31.1898 -60.8215 -29.4892 -20.9595 58.5503 36.521 0.19697 2.86228 -8.36451 -1.44006 -20.6604 -7.88844 -0 0 -0 14.8859 -28.4748 20.237 78.4239 69.7724 -98.9688 4.48685 0.312141 37.6432 1.29051 19.6175 -7.45402 3.1163 34.7594 -0.567221 3.10278 7.28835 0.214533 1.76106 -9.53985 -0.196923 -0.43874 -14.158 14.3769 -16.8769 4.14325 20.8887 -2.97274 4.91611 9.30272 -0 0 -0 -56.8115 -18.5277 -25.1455 18.7951 -5.77894 -33.9202 -0 9.1826 -0 22.0836 15.1681 32.818 -7.125 0 0 0.00827809 0.00315955 65.7744 -0 0 -0 76.3776 -6.09038 -1.77995 -22.4704 -8.59721 41.4528 -0 15.2465 -0 -34.6738 7.26168 -10.3551 7.125 0 -0 -8.45755 -0.377492 -42.463 
-0.081495 0.711705 -0.397875 4.55953 -1.35281 -59.6739 -0 0 -0 -33.2206 -61.352 -30.4009 -23.6275 60.2837 39.6195 -0.0226585 1.18711 -7.73077 -1.20867 -19.0175 -7.20666 -0 0 -0 13.0818 -28.1613 20.4602 79.1754 69.7295 -99.7698 4.56745 0.649805 38.6828 1.16176 18.6627 -7.06144 1.4596 35.0632 -0.0868642 3.01866 7.32665 0.215963 2.41352 -9.63336 -0.174359 -0.119336 -14.2471 14.5507 -17.4589 3.93047 21.1089 -3.17448 4.97916 9.38744 -0 0 -0 -57.111 -19.2789 -25.0656 18.7005 -5.71604 -33.7338 -0 9.016 -0 21.708 14.8468 32.7666 -7.125 0 0 -0.424601 -0.159622 65.6073 -0 0 -0 76.1329 -6.38192 -1.39736 -22.4349 -8.5662 41.3768 -0 15.4882 -0 -34.5018 6.81648 -9.79743 7.125 0 -0 -8.2153 -0.466897 -41.7697 
-0.084465 0.707785 -0.389685 4.29232 -0.72517 -61.1516 -0 0 -0 -32.231 -62.6015 -30.0921 -27.0478 62.1414 43.5213 -0.253285 -0.952989 -7.26511 -1.45757 -20.7783 -7.93799 -0 0 -0 14.4421 -27.304 22.6459 79.6894 69.6979 -100.318 3.70525 1.91325 38.6487 1.46203 20.8079 -7.95049 1.03294 35.5831 0.561193 3.17393 7.31515 0.876938 2.51204 -9.74498 0.117191 -0.369636 -14.4849 14.5138 -17.432 3.71422 21.0696 -3.13974 4.9219 9.36805 -0 0 -0 -57.375 -20.1812 -25.1458 18.5393 -5.60956 -33.4161 -0 9.7706 -0 21.7667 14.7007 32.4375 -7.125 0 0 -0.453512 -0.167377 65.2575 -0 0 -0 75.8466 -6.09771 -1.22644 -22.5212 -8.64153 41.5611 -0 15.4306 -0 -33.5313 6.06864 -9.06442 7.125 0 -0 -7.17243 -0.531389 -40.7852 
-0.08741 0.70473 -0.38065 4.49718 -0.42197 -61.0389 -0 0 -0 -34.2448 -63.1393 -32.1748 -29.8425 63.416 46.6638 -0.387394 -2.29811 -7.20873 -1.4838 -20.9528 -8.0115 -0 0 -0 13.7185 -27.0461 22.3221 79.8557 69.6873 -100.495 2.77238 3.38896 39.0286 1.9023 23.5257 -9.11707 1.78721 35.5742 0.14815 2.9541 7.4105 0.598499 2.05133 -9.6076 -0.0220087 0.0165807 -14.5398 14.5187 -17.51 3.26405 20.9479 -3.26685 4.84192 9.34324 -0 0 -0 -56.8935 -20.9156 -25.4801 18.3472 -5.48419 -33.0386 -0 9.6003 -0 21.4553 14.6723 32.8013 -7.125 0 0 -0.695948 -0.261243 65.5725 -0 0 -0 76.5148 -6.4711 -0.455603 -22.4461 -8.57592 41.4007 -0 15.6176 -0 -33.6644 6.13262 -9.11269 7.125 0 -0 -7.3085 -0.532329 -40.8567 
-0.09085 0.701705 -0.373605 4.59026 -0.0148436 -62.2694 -0 0 -0 -33.1932 -64.0946 -31.3621 -32.1147 64.3194 49.1945 -0.486383 -3.32297 -7.22441 -1.23266 -19.196 -7.28009 -0 0 -0 14.2699 -26.6597 23.6946 80.4394 69.6486 -101.118 2.63734 3.59426 39.0771 1.99816 24.0647 -9.35451 1.19266 35.8844 0.831038 2.70017 7.4641 1.19321 1.7834 -9.67481 0.249346 0.712268 -14.8316 14.4808 -17.7215 3.10156 20.7897 -3.43148 4.92284 9.25885 -0 0 -0 -56.1941 -21.1441 -25.8507 18.138 -5.3498 -32.6291 -0 9.5664 -0 21.9339 14.6389 32.1124 -7.125 0 0 -0.360243 -0.130699 64.9431 -0 0 -0 76.8683 -6.5695 -0.551119 -22.5709 -8.68522 41.6675 -0 15.3077 -0 -33.619 6.51178 -9.67974 7.125 0 -0 -7.33108 -0.447001 -41.53 
-0.09359 0.699045 -0.36633 5.00964 0.113546 -62.8113 -0 0 -0 -34.2128 -64.8146 -32.2124 -34.4383 65.138 51.7639 -0.555901 -4.3195 -7.0412 -1.1669 -18.7017 -7.07734 -0 0 -0 14.0097 -26.7105 24.2173 80.8475 69.6202 -101.553 3.15671 2.92027 39.2374 1.7007 22.3339 -8.59954 0.745992 35.9578 1.15303 2.58483 7.47115 1.4138 1.75883 -9.70362 0.35437 0.623508 -14.7902 14.3599 -17.6474 2.76794 20.5747 -3.45711 4.79391 9.18621 -0 0 -0 -56.2701 -21.7675 -26.3433 17.9856 -5.25321 -32.3316 -0 9.9829 -0 21.4649 14.7072 32.849 -7.125 0 0 -0.671482 -0.252757 65.6285 -0 0 -0 77.0651 -6.74948 -0.146415 -22.5583 -8.67418 41.6406 -0 15.2918 -0 -33.3799 5.97311 -8.97503 7.125 0 -0 -7.01368 -0.534563 -40.6632 
-0.096255 0.696985 -0.35955 5.24179 0.480407 -62.9393 -0 0 -0 -35.1367 -65.4158 -33.1456 -36.5903 65.8125 54.1293 -0.639796 -5.13154 -7.19037 -1.11505 -18.3017 -6.91423 -0 0 -0 13.7125 -26.6987 24.0745 80.6078 69.637 -101.297 2.96501 3.20011 39.2678 1.69797 22.3175 -8.59246 0.613374 36.211 1.20075 2.67561 7.46179 1.43263 1.90551 -9.81351 0.360272 0.996863 -15.0574 14.5308 -18.1005 2.76937 20.8044 -3.5935 4.93548 9.25853 -0 0 -0 -56.2821 -22.1117 -26.4491 17.97 -5.24334 -32.3011 -0 9.7045 -0 21.7216 14.3785 31.9364 -7.125 0 0 -0.644913 -0.230724 64.6864 -0 0 -0 76.8295 -6.17179 -0.111345 -22.671 -8.77363 41.8822 -0 14.9122 -0 -33.1571 5.93583 -8.99482 7.125 0 -0 -6.79739 -0.517789 -40.6644 
-0.098605 0.69575 -0.352495 5.07984 0.882338 -63.0462 -0 0 -0 -35.448 -65.4605 -33.8026 -38.6027 66.3786 56.3304 -0.719749 -5.99154 -7.28169 -0.920151 -16.6926 -6.26605 -0 0 -0 13.6132 -26.1043 23.9042 79.7764 69.6924 -100.411 3.01679 3.23692 39.5828 1.67206 22.1583 -8.52401 1.04053 36.65 1.16331 2.67899 7.57063 1.52913 1.67554 -9.83808 0.386483 0.975349 -15.2337 14.3923 -17.8965 2.46572 20.5522 -3.57403 4.83325 9.16176 -0 0 -0 -55.9718 -22.0033 -26.6279 17.9351 -5.22137 -32.2331 -0 9.1301 -0 21.5692 14.5704 32.4724 -7.125 0 0 -0.663072 -0.244517 65.2395 -0 0 -0 76.8186 -5.88909 -0.0759005 -22.7882 -8.87802 42.1342 -0 14.7063 -0 -33.0907 6.11756 -9.28765 7.125 0 -0 -6.76544 -0.474602 -41.006 
-0.10082 0.693745 -0.346555 5.3474 1.27148 -62.9633 -0 0 -0 -36.5106 -66.2983 -34.6233 -40.7717 66.926 58.6927 -0.822485 -6.67357 -7.63403 -0.954848 -16.9916 -6.38553 -0 0 -0 13.3717 -26.0666 23.7814 79.3329 69.72 -99.9377 3.09001 3.18769 39.7325 1.62702 21.8774 -8.40383 0.911397 36.9226 1.2803 2.83741 7.51731 1.6513 1.85118 -10.007 0.440096 1.19264 -15.4132 14.3579 -18.22 2.39334 20.4972 -3.69791 4.89703 9.11184 -0 0 -0 -55.9665 -22.1375 -27.166 17.7695 -5.11809 -31.911 -0 9.0711 -0 21.8229 14.8693 32.6533 -7.125 0 0 -0.329238 -0.123221 65.5145 -0 0 -0 76.6389 -5.7817 -0.0550802 -22.8752 -8.95595 42.3216 -0 14.5535 -0 -32.9423 5.83502 -8.91677 7.125 0 -0 -6.57803 -0.514193 -40.5501 
-0.10338 0.69302 -0.34127 5.68884 1.5236 -63.5226 -0 0 -0 -36.441 -66.8119 -34.5073 -42.3881 67.2953 60.4472 -0.921786 -7.61373 -7.80604 -1.10902 -18.254 -6.89483 -0 0 -0 13.3761 -26.0238 24.3284 78.6569 69.7595 -99.2172 3.18684 3.15928 40.0313 1.54281 21.3402 -8.17517 0.230193 37.0304 1.63164 2.76247 7.58756 1.80814 1.99209 -9.9862 0.516018 1.36329 -15.6015 14.4728 -18.145 2.01114 20.5578 -3.7133 4.82281 9.16693 -0 0 -0 -55.6853 -22.4546 -27.2947 17.759 -5.11156 -31.8906 -0 9.1059 -0 22.9991 14.6276 30.751 -7.125 0 0 0.436098 0.147788 63.7212 -0 0 -0 76.8687 -5.9365 0.473539 -22.8358 -8.92058 42.2366 -0 15.2276 -0 -31.7037 3.79543 -6.11667 7.125 0 -0 -5.10981 -0.706991 -37.1435 
-0.10606 0.691945 -0.33511 5.8304 2.10005 -62.981 -0 0 -0 -38.1784 -66.9131 -36.586 -43.9603 67.6253 62.1495 -1.01495 -8.05978 -8.15944 -0.981826 -17.2211 -6.47755 -0 0 -0 13.2232 -25.6488 23.8579 77.5828 69.8159 -98.0727 3.00462 3.4358 40.1123 1.6933 22.2889 -8.58008 1.23623 37.0917 1.13997 2.63945 7.6143 1.56299 1.52811 -9.93867 0.39117 2.00929 -16.0353 14.4691 -18.2892 1.92653 20.4496 -3.82971 4.93344 9.09237 -0 0 -0 -55.3037 -22.6717 -27.6781 17.7206 -5.08779 -31.8161 -0 9.2495 -0 21.7153 14.9198 32.8819 -7.125 0 0 -0.383179 -0.145053 65.738 -0 0 -0 77.421 -6.37305 0.75245 -22.8467 -8.93029 42.2601 -0 16.6679 -0 -31.5402 3.44891 -5.59797 7.125 0 -0 -4.9132 -0.733862 -36.5255 
-0.108895 0.691825 -0.330185 5.99419 2.65101 -62.9814 -0 0 -0 -38.4765 -67.3521 -37.0586 -45.4038 67.9046 63.7089 -1.09317 -8.36989 -8.46724 -0.870128 -16.249 -6.08941 -0 0 -0 13.4228 -25.4015 23.8473 76.5219 69.8642 -96.9424 2.80035 3.67444 39.9983 1.78802 22.8602 -8.8269 0.746619 37.2096 1.15079 3.25168 7.57915 1.4646 2.45495 -10.0597 0.346629 0.891821 -15.661 14.5591 -18.0533 1.17679 20.6062 -3.6932 4.53708 9.25004 -0 0 -0 -56.2775 -23.4024 -27.2161 17.8687 -5.17987 -32.1039 -0 9.0543 -0 24.0137 16.6001 32.6703 -7.125 0 0 2.11199 0.818645 66.1772 -0 0 -0 76.3425 -4.76466 0.689382 -22.9692 -9.04079 42.5247 -0 16.6177 -0 -31.4237 2.88128 -4.70336 7.125 0 -0 -4.74007 -0.797399 -35.4726 
